<?xml version="1.0" standalone="no"?>
<!DOCTYPE svg PUBLIC "-//W3C//DTD SVG 1.1//EN" "http://www.w3.org/Graphics/SVG/1.1/DTD/svg11.dtd" >
<svg xmlns="http://www.w3.org/2000/svg" xmlns:xlink="http://www.w3.org/1999/xlink" version="1.1">
<metadata></metadata>
<defs>
<font id="alien_leagueregular" horiz-adv-x="933" >
<font-face units-per-em="2048" ascent="1638" descent="-410" />
<missing-glyph horiz-adv-x="761" />
<glyph horiz-adv-x="0" />
<glyph unicode="&#xd;" horiz-adv-x="1024" />
<glyph unicode=" "  horiz-adv-x="761" />
<glyph unicode="&#x09;" horiz-adv-x="761" />
<glyph unicode="&#xa0;" horiz-adv-x="761" />
<glyph unicode="!" horiz-adv-x="571" d="M164 0h88v123h-88v-123zM174 365h68v1175h-68v-1175z" />
<glyph unicode="&#x22;" horiz-adv-x="761" d="M164 1315l16 -215h35l16 215v225h-67v-225zM375 1315l16 -215h35l16 215v225h-67v-225z" />
<glyph unicode="#" horiz-adv-x="1249" d="M164 625h215v-625h67v625h199v-625h68v625h217v71h-217v197h217v72h-217v575h-68v-575h-199v575h-67v-575h-215v-72h215v-197h-215v-71zM446 696v197h199v-197h-199z" />
<glyph unicode="$" horiz-adv-x="935" d="M164 147q0 -53 38 -98t97 -49h59v-213h66v213h57q72 4 102.5 52t30.5 112v553q0 25 -12 44t-28.5 33.5t-36 22.5t-31.5 8h-82v643h33q57 0 73.5 -33.5t16.5 -101.5v-280h69v340q0 53 -37.5 98t-97.5 49h-57v121h-66v-121h-59q-72 -4 -102.5 -52t-30.5 -112v-510 q0 -59 40 -85.5t77 -26.5h75v-682h-34q-57 0 -74 33.5t-17 101.5v280h-69v-340zM233 915v420q0 61 16.5 97t67.5 36h41v-643h-49q-57 0 -66.5 24.5t-9.5 65.5zM424 72v682h27q59 0 77.5 -21.5t18.5 -64.5v-463q0 -61 -18.5 -97t-65.5 -36h-39z" />
<glyph unicode="%" horiz-adv-x="1142" d="M164 852q0 -31 14.5 -56.5t48.5 -25.5h101q31 0 46 23.5t15 52.5v620q0 27 -19.5 48.5t-47.5 25.5h-93q-35 -4 -50 -27.5t-15 -54.5v-606zM215 872v564q0 55 33 55h55q23 0 29 -14.5t6 -42.5v-562q0 -29 -6 -42t-29 -13h-41q-29 0 -38 14t-9 41zM268 0h80l369 1540h-80z M598 82q0 -31 14.5 -56.5t49.5 -25.5h100q31 0 46 23.5t15 52.5v620q0 27 -19.5 48.5t-47.5 25.5h-92q-35 -4 -50.5 -27.5t-15.5 -54.5v-606zM649 102v564q0 55 33 55h55q23 0 29 -14.5t6 -42.5v-562q0 -29 -6 -42t-29 -13h-41q-29 0 -38 14t-9 41z" />
<glyph unicode="&#x26;" horiz-adv-x="1060" d="M164 164q0 -59 28.5 -109.5t100.5 -54.5h194q61 4 94 48t33 99v558h127v71h-510v559q0 61 25 97t59 36h80q57 0 73.5 -33.5t16.5 -101.5v-280h70v340q0 53 -38 98t-97 49h-123q-72 -4 -102.5 -52t-30.5 -112v-1212zM231 207v498h314v-498q0 -68 -18.5 -101.5t-75.5 -33.5 h-99q-72 0 -96.5 34.5t-24.5 100.5z" />
<glyph unicode="'" horiz-adv-x="550" d="M164 1315l16 -215h35l16 215v225h-67v-225z" />
<glyph unicode="(" horiz-adv-x="673" d="M164 700q0 -135 10 -267t28.5 -255t44 -234.5t56.5 -203.5h51q-59 242 -92 479.5t-33 478.5q0 94 5.5 187.5t15.5 187.5q16 150 41.5 295t62.5 293h-51q-37 -129 -64.5 -252t-43.5 -252q-31 -219 -31 -457z" />
<glyph unicode=")" horiz-adv-x="673" d="M164 -260q59 242 92 479.5t33 478.5q0 94 -5 187.5t-16 187.5q-16 150 -41.5 295t-62.5 293h51q37 -129 64.5 -252t44.5 -252q31 -219 30 -457q0 -135 -10 -267t-28.5 -255t-44 -234.5t-56.5 -203.5h-51z" />
<glyph unicode="*" horiz-adv-x="700" d="M164 1509q20 -10 39.5 -18t40.5 -14q-10 -14 -22.5 -40t-33.5 -67l37 -45q10 16 21.5 47t23.5 72q25 -78 47 -119l39 45q-18 39 -32.5 65.5t-24.5 41.5q43 10 82 32l-14 60q-16 -10 -36 -24.5t-36 -31.5v129h-49v-129q-27 33 -72 56z" />
<glyph unicode="+" horiz-adv-x="995" d="M164 758h221v-221h72v221h219v71h-219v220h-72v-220h-221v-71z" />
<glyph unicode="," horiz-adv-x="571" d="M164 0h53q-2 -72 -11 -112t-28 -60l17 -66q31 33 44 89.5t13 148.5v123h-88v-123z" />
<glyph unicode="-" horiz-adv-x="919" d="M164 758h436v71h-436v-71z" />
<glyph unicode="." horiz-adv-x="571" d="M164 0h88v123h-88v-123z" />
<glyph unicode="/" horiz-adv-x="931" d="M164 0h80l368 1540h-80z" />
<glyph unicode="0" d="M164 164q0 -59 28.5 -109.5t100.5 -54.5h199q61 4 91.5 50t30.5 102v1241q0 53 -37.5 98t-97.5 49h-182q-72 0 -102.5 -50t-30.5 -114v-1212zM231 207v1128q0 61 25 97t59 36h140q57 0 74.5 -33.5t17.5 -101.5v-1126q0 -68 -17.5 -101.5t-74.5 -33.5h-111 q-72 0 -92.5 34.5t-20.5 100.5z" />
<glyph unicode="1" horiz-adv-x="739" d="M164 1468h184v-1468h72v1538h-256v-70z" />
<glyph unicode="2" d="M164 1053h69v280q0 68 16.5 101.5t74.5 33.5h139q51 0 67.5 -36t16.5 -97v-420q0 -41 -9.5 -65.5t-66.5 -24.5h-197q-12 0 -31.5 -8t-36 -22.5t-28.5 -34t-12 -43.5v-553q0 -63 30.5 -111.5t102.5 -52.5h315v72h-297q-47 0 -65.5 35.5t-18.5 97.5v463q0 43 18.5 64.5 t78.5 21.5h168q37 0 76.5 26.5t39.5 85.5v510q0 63 -30.5 111.5t-102.5 52.5h-182q-59 -4 -97 -49t-38 -98v-340z" />
<glyph unicode="3" d="M164 152q0 -55 30.5 -101.5t92.5 -50.5h198q72 4 100.5 54t28.5 110v1212q0 63 -30.5 111.5t-102.5 52.5h-182q-59 -4 -97 -49t-38 -98v-340h67v280q0 68 17.5 101.5t75.5 33.5h139q35 0 59.5 -35.5t24.5 -97.5v-504h-307v-71h307v-553q0 -66 -22.5 -100.5t-94.5 -34.5 h-106q-57 0 -75 33.5t-18 101.5v280h-67v-335z" />
<glyph unicode="4" horiz-adv-x="931" d="M164 760h381v-760h67v1540h-67v-709h-314v709h-67v-780z" />
<glyph unicode="5" d="M164 147v340h69v-280q0 -68 16.5 -101.5t74.5 -33.5h139q47 0 65.5 35.5t18.5 97.5v463q0 43 -18.5 64.5t-77.5 21.5h-168q-37 0 -77 26.5t-40 85.5v674h448v-72h-381v-553q0 -41 9.5 -65.5t66.5 -24.5h197q12 0 31.5 -8t36 -22.5t28.5 -34t12 -43.5v-553 q0 -63 -30.5 -111.5t-102.5 -52.5h-182q-59 4 -97 49t-38 98z" />
<glyph unicode="6" d="M164 164q0 -59 28.5 -109.5t100.5 -54.5h194q61 4 94 48t33 99v500q0 39 -32.5 78t-73.5 51h-277v559q0 61 25 97t59 36h142q57 0 73.5 -33.5t16.5 -101.5v-280h67v340q0 53 -37.5 98t-97.5 49h-182q-72 -4 -102.5 -52t-30.5 -112v-1212zM231 207v498h226q76 -10 90 -87 v-411q0 -68 -19.5 -101.5t-76.5 -33.5h-99q-72 0 -96.5 34.5t-24.5 100.5z" />
<glyph unicode="7" horiz-adv-x="935" d="M164 1468v72h452v-74l-383 -1466h-65l369 1468h-373z" />
<glyph unicode="8" d="M164 164q0 -59 28.5 -109.5t100.5 -54.5h199q61 4 91.5 50t30.5 102v1241q0 53 -37.5 98t-97.5 49h-182q-72 -4 -102.5 -52t-30.5 -112v-1212zM231 207v551h318v-551q0 -68 -18.5 -101.5t-75.5 -33.5h-103q-72 0 -96.5 34.5t-24.5 100.5zM231 829v506q0 61 25 97t59 36 h140q57 0 75.5 -33.5t18.5 -101.5v-504h-318z" />
<glyph unicode="9" d="M164 147q0 -53 38 -98t97 -49h182q72 4 102.5 52t30.5 112v1212q0 59 -28.5 109.5t-100.5 54.5h-194q-61 -4 -94 -48t-33 -99v-508q0 -18 11 -38t27.5 -36t38 -28.5t42.5 -18.5h264v-559q0 -61 -24.5 -97t-59.5 -36h-139q-57 0 -75 33.5t-18 101.5v280h-67v-340zM231 924 v411q0 68 19.5 100.5t77.5 32.5h98q72 0 96.5 -34.5t24.5 -100.5v-497h-225q-74 10 -91 88z" />
<glyph unicode=":" horiz-adv-x="571" d="M164 0h88v123h-88v-123zM164 854h88v123h-88v-123z" />
<glyph unicode=";" horiz-adv-x="571" d="M164 0h53q-2 -72 -11 -112t-28 -60l17 -66q31 33 44 89.5t13 148.5v123h-88v-123zM164 854h88v123h-88v-123z" />
<glyph unicode="&#x3c;" horiz-adv-x="864" d="M164 797l301 -797h80l-305 799l305 741h-80z" />
<glyph unicode="=" horiz-adv-x="1077" d="M164 625h594v71h-594v-71zM164 893h594v72h-594v-72z" />
<glyph unicode="&#x3e;" horiz-adv-x="864" d="M164 0l305 799l-305 741h80l301 -743l-301 -797h-80z" />
<glyph unicode="?" d="M164 1053h69v280q0 68 16.5 101.5t74.5 33.5h139q51 0 67.5 -35.5t16.5 -97.5v-420q0 -41 -9.5 -65.5t-66.5 -24.5h-47q-12 0 -31.5 -8t-36 -22.5t-29 -34t-12.5 -43.5v-291h68v242q0 43 18.5 64.5t77.5 21.5h19q37 0 76.5 26.5t39.5 85.5v510q0 63 -30.5 111.5 t-102.5 52.5h-182q-59 -4 -97 -49t-38 -98v-340zM301 0h88v123h-88v-123z" />
<glyph unicode="@" horiz-adv-x="1347" d="M164 164v1212q0 63 30.5 111.5t102.5 52.5h596q59 -4 97 -49t38 -98v-1035h-293l-55 316h-123l-49 -316h-57l139 924h53l139 -862h172v938q0 55 -17 82.5t-69 27.5h-553q-35 0 -59.5 -38.5t-24.5 -100.5v-1139q0 -59 26 -88.5t95 -29.5h549v-72h-608q-72 4 -100.5 54 t-28.5 110zM567 721h103l-56 420z" />
<glyph unicode="A" horiz-adv-x="1052" d="M164 0h74l75 524h262l84 -524h74l-246 1540h-88zM324 604l120 791l119 -791h-239z" />
<glyph unicode="B" horiz-adv-x="968" d="M164 0h246q68 0 113.5 42t73.5 106.5t40 143.5t12 152q0 135 -30.5 232.5t-90.5 138.5q45 53 66.5 147.5t21.5 190.5q0 86 -10 157.5t-34.5 122t-65.5 79t-103 28.5h-239v-1540zM231 72v678h162q31 0 56.5 -2.5t44.5 -16.5q41 -31 61 -113.5t20 -195.5q0 -150 -45 -236 t-127 -114h-172zM231 829v639h144q55 -6 89 -28.5t51 -61.5t22.5 -95t5.5 -130q0 -111 -19.5 -188.5t-54.5 -110.5q-29 -25 -88 -25h-150z" />
<glyph unicode="C" d="M164 164q0 -59 28.5 -109.5t100.5 -54.5h199q61 4 91.5 50t30.5 102v335h-67v-280q0 -68 -17.5 -101.5t-74.5 -33.5h-107q-72 0 -94.5 34.5t-22.5 100.5v1128q0 61 25 97t59 36h140q57 0 74.5 -32.5t17.5 -100.5v-282h67v340q0 53 -37.5 98t-97.5 49h-182q-63 0 -98 -50 t-35 -114v-1212z" />
<glyph unicode="D" horiz-adv-x="937" d="M164 0h174q43 0 84 31.5t70 83.5q18 33 40.5 87t41 131t31.5 177t13 225v39q0 205 -21.5 364.5t-64.5 260.5q-35 53 -82 97t-98 44h-188v-1540zM231 72v1396h86q25 0 46.5 -11t42.5 -30q70 -59 98 -208q8 -23 15 -66t13.5 -97.5t10.5 -113.5t4 -117q0 -113 -8.5 -209 t-12.5 -149q-4 -43 -17 -108.5t-38 -127t-62.5 -107.5t-91.5 -52h-86z" />
<glyph unicode="E" horiz-adv-x="935" d="M164 0h452v72h-385v686h342v71h-342v639h385v72h-452v-1540z" />
<glyph unicode="F" horiz-adv-x="935" d="M164 0h67v758h342v71h-342v639h385v72h-452v-1540z" />
<glyph unicode="G" d="M164 164q0 -59 28.5 -109.5t100.5 -54.5h194q61 4 94 48t33 99v629h-202v-71h135v-498q0 -68 -19.5 -101.5t-76.5 -33.5h-99q-72 0 -96.5 34.5t-24.5 100.5v1128q0 61 25 97t59 36h140q57 0 74.5 -33.5t17.5 -101.5v-280h67v340q0 53 -37.5 98t-97.5 49h-182 q-72 0 -102.5 -50t-30.5 -114v-1212z" />
<glyph unicode="H" horiz-adv-x="931" d="M164 0h67v760h314v-760h67v1540h-67v-709h-314v709h-67v-1540z" />
<glyph unicode="I" horiz-adv-x="657" d="M164 750q0 -193 12 -375t35 -375l37 -45l31 45q29 199 44 392.5t15 391.5q0 377 -55 756l-37 43l-31 -43q-23 -199 -37 -395.5t-14 -394.5z" />
<glyph unicode="J" horiz-adv-x="929" d="M164 152q0 -55 30.5 -101.5t92.5 -50.5h194q72 4 100.5 54t28.5 110v1376h-67v-1333q0 -66 -24.5 -100.5t-96.5 -34.5h-98q-57 0 -75 33.5t-18 101.5v280h-67v-335z" />
<glyph unicode="K" horiz-adv-x="946" d="M164 0h67v573l99 238l227 -811h70l-252 909l241 631h-71l-314 -805v805h-67v-1540z" />
<glyph unicode="L" horiz-adv-x="937" d="M164 0h454v72h-387v1468h-67v-1540z" />
<glyph unicode="M" horiz-adv-x="1447" d="M164 0h69v1343l388 -1343h57l383 1343v-1343h67v1540h-73l-404 -1395l-415 1395h-72v-1540z" />
<glyph unicode="N" d="M164 0h67v1274l310 -1274h73v1540h-67v-1280l-307 1280h-76v-1540z" />
<glyph unicode="O" d="M164 164q0 -59 28.5 -109.5t100.5 -54.5h199q61 4 91.5 50t30.5 102v1241q0 53 -37.5 98t-97.5 49h-182q-74 0 -103.5 -50t-29.5 -114v-1212zM231 207v1128q0 61 25 97t59 36h140q57 0 74.5 -33.5t17.5 -101.5v-1126q0 -68 -17.5 -101.5t-74.5 -33.5h-103 q-72 0 -96.5 34.5t-24.5 100.5z" />
<glyph unicode="P" horiz-adv-x="927" d="M164 0h67v682h177q33 0 68.5 26.5t65 80t48 136.5t18.5 193q0 94 -18.5 172t-47 133.5t-64.5 86t-68 30.5h-246v-1540zM231 754v714h127q57 0 91 -32.5t53.5 -84t28 -113.5t12.5 -124q-6 -55 -12.5 -118.5t-21.5 -118t-45 -89t-85 -34.5h-148z" />
<glyph unicode="Q" d="M164 164q0 -59 28.5 -109.5t100.5 -54.5h63v-180h68v180h68q61 4 91.5 50t30.5 102v1241q0 53 -37.5 98t-97.5 49h-182q-72 0 -102.5 -50t-30.5 -114v-1212zM231 207v1128q0 61 25 97t59 36h140q57 0 74.5 -33.5t17.5 -101.5v-1126q0 -68 -17.5 -101.5t-74.5 -33.5h-31 v696h-68v-696h-4q-72 0 -96.5 34.5t-24.5 100.5z" />
<glyph unicode="R" horiz-adv-x="972" d="M164 0h67v682h117q18 -12 36.5 -31.5t38 -58.5t40 -104.5t43.5 -172.5l67 -315h80l-98 420q-20 86 -39.5 146.5t-60.5 125.5q59 29 106 134.5t47 291.5q0 94 -18.5 172t-47 133.5t-64.5 86t-68 30.5h-246v-1540zM231 754v714h127q57 0 91 -32.5t53.5 -84t28 -113.5 t12.5 -124q-6 -55 -12.5 -118.5t-21.5 -118t-45 -89t-85 -34.5h-148z" />
<glyph unicode="S" horiz-adv-x="935" d="M164 147v340h67v-282q0 -68 17.5 -100.5t75.5 -32.5h139q47 0 65.5 35.5t18.5 97.5v463q0 43 -18.5 64.5t-77.5 21.5h-168q-37 0 -77 26.5t-40 85.5v510q0 63 30.5 111.5t102.5 52.5h182q59 -4 97 -49t38 -98v-340h-67v280q0 68 -17.5 101.5t-74.5 33.5h-140 q-51 0 -67.5 -36t-16.5 -97v-420q0 -41 9.5 -65.5t66.5 -24.5h197q12 0 31.5 -8t36 -22.5t28.5 -34t12 -43.5v-553q0 -63 -30.5 -111.5t-102.5 -52.5h-182q-59 4 -97 49t-38 98z" />
<glyph unicode="T" horiz-adv-x="937" d="M164 1468h192v-1468h70v1468h192v72h-454v-72z" />
<glyph unicode="U" d="M164 164q0 -59 28.5 -109.5t100.5 -54.5h199q61 4 91.5 50t30.5 102v1388h-67v-1333q0 -68 -17.5 -101.5t-74.5 -33.5h-103q-72 0 -96.5 34.5t-24.5 100.5v1333h-67v-1376z" />
<glyph unicode="V" horiz-adv-x="1052" d="M164 1540h74l206 -1390l215 1390h74l-246 -1540h-88z" />
<glyph unicode="W" horiz-adv-x="1519" d="M164 1540l231 -1540h88l199 1268l180 -1268h88l250 1540h-74l-219 -1395l-202 1395h-46l-219 -1395l-202 1395h-74z" />
<glyph unicode="X" horiz-adv-x="931" d="M164 0h80l145 760l143 -760h80l-155 801l155 739h-80l-143 -717l-149 717h-76l153 -739z" />
<glyph unicode="Y" horiz-adv-x="929" d="M164 889v651h67v-616q0 -92 86 -93h148q78 0 78 87v622h67v-657q0 -33 -14 -55.5t-35.5 -38t-47.5 -22.5t-48 -7h-41v-760h-72v760h-41q-27 0 -52.5 7t-47 22.5t-34.5 40t-13 59.5z" />
<glyph unicode="Z" horiz-adv-x="935" d="M164 1468v72h452v-72l-376 -1396h376v-72h-448v72l373 1396h-377z" />
<glyph unicode="[" horiz-adv-x="626" d="M164 -213h143v72h-78v1730h76v72h-141v-1874z" />
<glyph unicode="\" horiz-adv-x="931" d="M164 1540h80l368 -1540h-80z" />
<glyph unicode="]" horiz-adv-x="626" d="M164 -141h78v1730h-76v72h141v-1874h-143v72z" />
<glyph unicode="^" horiz-adv-x="700" d="M164 1384h67l41 89l41 -89h68l-72 156h-73z" />
<glyph unicode="_" horiz-adv-x="935" d="M164 0h452v72h-452v-72z" />
<glyph unicode="`" horiz-adv-x="600" d="M164 1540l72 -156h45l-43 156h-74z" />
<glyph unicode="a" horiz-adv-x="1052" d="M164 0h74l206 1391l215 -1391h74l-246 1540h-88z" />
<glyph unicode="b" horiz-adv-x="968" d="M164 0h246q68 0 113.5 42t73.5 106.5t40 143.5t12 152q0 135 -30.5 232.5t-90.5 138.5q45 53 66.5 147.5t21.5 190.5q0 86 -10 157.5t-34.5 122t-65.5 79t-103 28.5h-239v-1540zM231 72v678h162q31 0 56.5 -2.5t44.5 -16.5q41 -31 61 -113.5t20 -195.5q0 -150 -45 -236 t-127 -114h-172zM231 829v639h144q55 -6 89 -28.5t51 -61.5t22.5 -95t5.5 -130q0 -111 -19.5 -188.5t-54.5 -110.5q-29 -25 -88 -25h-150z" />
<glyph unicode="c" d="M164 164q0 -59 28.5 -109.5t100.5 -54.5h199q61 4 91.5 50t30.5 102v335h-67v-280q0 -68 -17.5 -101.5t-74.5 -33.5h-107q-72 0 -94.5 34.5t-22.5 100.5v1128q0 61 25 97t59 36h140q57 0 74.5 -32.5t17.5 -100.5v-282h67v340q0 53 -37.5 98t-97.5 49h-182q-63 0 -98 -50 t-35 -114v-1212z" />
<glyph unicode="d" horiz-adv-x="937" d="M164 0h174q43 0 84 31.5t70 83.5q18 33 40.5 87t41 131t31.5 177t13 225v39q0 205 -21.5 364.5t-64.5 260.5q-35 53 -82 97t-98 44h-188v-1540zM231 72v1396h86q25 0 46.5 -11t42.5 -30q70 -59 98 -208q8 -23 15 -66t13.5 -97.5t10.5 -113.5t4 -117q0 -113 -8.5 -209 t-12.5 -149q-4 -43 -17 -108.5t-38 -127t-62.5 -107.5t-91.5 -52h-86z" />
<glyph unicode="e" horiz-adv-x="935" d="M164 0h452v72h-385v686h342v71h-342v639h385v72h-452v-1540z" />
<glyph unicode="f" horiz-adv-x="935" d="M164 0h67v758h342v71h-342v639h385v72h-452v-1540z" />
<glyph unicode="g" d="M164 164q0 -59 28.5 -109.5t100.5 -54.5h194q61 4 94 48t33 99v629h-202v-71h135v-498q0 -68 -19.5 -101.5t-76.5 -33.5h-99q-72 0 -96.5 34.5t-24.5 100.5v1128q0 61 25 97t59 36h140q57 0 74.5 -33.5t17.5 -101.5v-280h67v340q0 53 -37.5 98t-97.5 49h-182 q-59 0 -96 -50t-37 -114v-1212z" />
<glyph unicode="h" horiz-adv-x="931" d="M164 0h67v760h314v-760h67v1540h-67v-709h-314v709h-67v-1540z" />
<glyph unicode="i" horiz-adv-x="557" d="M164 0h74v1540h-74v-1540z" />
<glyph unicode="j" horiz-adv-x="929" d="M164 152q0 -55 30.5 -101.5t92.5 -50.5h194q72 4 100.5 54t28.5 110v1376h-67v-1333q0 -66 -24.5 -100.5t-96.5 -34.5h-98q-57 0 -75 33.5t-18 101.5v280h-67v-335z" />
<glyph unicode="k" horiz-adv-x="946" d="M164 0h67v573l99 238l227 -811h70l-252 909l241 631h-71l-314 -805v805h-67v-1540z" />
<glyph unicode="l" horiz-adv-x="937" d="M164 0h454v72h-387v1468h-67v-1540z" />
<glyph unicode="m" horiz-adv-x="1447" d="M164 0h69v1343l388 -1343h57l383 1343v-1343h67v1540h-73l-404 -1395l-415 1395h-72v-1540z" />
<glyph unicode="n" d="M164 0h67v1274l310 -1274h73v1540h-67v-1280l-307 1280h-76v-1540z" />
<glyph unicode="o" d="M164 164q0 -59 28.5 -109.5t100.5 -54.5h199q61 4 91.5 50t30.5 102v1241q0 53 -37.5 98t-97.5 49h-182q-72 0 -102.5 -50t-30.5 -114v-1212zM231 207v1128q0 61 25 97t59 36h140q57 0 74.5 -33.5t17.5 -101.5v-1126q0 -68 -17.5 -101.5t-74.5 -33.5h-111 q-72 0 -92.5 34.5t-20.5 100.5z" />
<glyph unicode="p" horiz-adv-x="927" d="M164 0h67v682h177q33 0 68.5 26.5t65 80t48 136.5t18.5 193q0 106 -23.5 186t-56 132.5t-65.5 78t-53 25.5h-246v-1540zM231 754v714h131q49 0 83 -32.5t53.5 -84t30 -113.5t14.5 -124q-6 -55 -12.5 -118.5t-21.5 -118t-45 -89t-85 -34.5h-148z" />
<glyph unicode="q" d="M164 164q0 -59 28.5 -109.5t100.5 -54.5h199q61 4 91.5 50t30.5 102v1241q0 53 -37.5 98t-97.5 49h-182q-72 0 -102.5 -50t-30.5 -114v-1212zM231 207v1128q0 61 25 97t59 36h140q57 0 74.5 -33.5t17.5 -101.5v-1126q0 -68 -17.5 -101.5t-74.5 -33.5h-31v696h-68v-696h-4 q-72 0 -96.5 34.5t-24.5 100.5z" />
<glyph unicode="r" horiz-adv-x="972" d="M164 0h67v682h117q18 -12 36.5 -31.5t38 -58.5t40 -104.5t43.5 -172.5l67 -315h80l-98 420q-20 86 -39.5 146.5t-60.5 125.5q59 29 106 134.5t47 291.5q0 94 -18.5 172t-47 133.5t-64.5 86t-68 30.5h-246v-1540zM231 754v714h127q57 0 91 -32.5t53.5 -84t28 -113.5 t12.5 -124q-6 -55 -12.5 -118.5t-21.5 -118t-45 -89t-85 -34.5h-148z" />
<glyph unicode="s" horiz-adv-x="935" d="M164 147v340h67v-282q0 -68 17.5 -100.5t75.5 -32.5h139q47 0 65.5 35.5t18.5 97.5v463q0 43 -18.5 64.5t-77.5 21.5h-168q-37 0 -77 26.5t-40 85.5v510q0 63 30.5 111.5t102.5 52.5h182q59 -4 97 -49t38 -98v-340h-67v280q0 68 -17.5 101.5t-74.5 33.5h-140 q-51 0 -67.5 -36t-16.5 -97v-420q0 -41 9.5 -65.5t66.5 -24.5h197q12 0 31.5 -8t36 -22.5t28.5 -34t12 -43.5v-553q0 -63 -30.5 -111.5t-102.5 -52.5h-182q-59 4 -97 49t-38 98z" />
<glyph unicode="t" horiz-adv-x="937" d="M164 1468h192v-1468h70v1468h192v72h-454v-72z" />
<glyph unicode="u" d="M164 164q0 -59 28.5 -109.5t100.5 -54.5h199q61 4 91.5 50t30.5 102v1388h-67v-1333q0 -68 -17.5 -101.5t-74.5 -33.5h-103q-72 0 -96.5 34.5t-24.5 100.5v1333h-67v-1376z" />
<glyph unicode="v" horiz-adv-x="1052" d="M164 1540h74l206 -1390l215 1390h74l-246 -1540h-88z" />
<glyph unicode="w" horiz-adv-x="1519" d="M164 1540l231 -1540h88l199 1268l180 -1268h88l250 1540h-74l-219 -1395l-202 1395h-46l-219 -1395l-202 1395h-74z" />
<glyph unicode="x" horiz-adv-x="931" d="M164 0h67l158 760l152 -760h71l-155 801l155 739h-71l-152 -717l-156 717h-69l153 -739z" />
<glyph unicode="y" horiz-adv-x="929" d="M164 889v651h67v-616q0 -92 86 -93h148q78 0 78 87v622h67v-657q0 -33 -14 -55.5t-35.5 -38t-47.5 -22.5t-48 -7h-41v-760h-72v760h-41q-27 0 -52.5 7t-47 22.5t-34.5 40t-13 59.5z" />
<glyph unicode="z" horiz-adv-x="935" d="M164 1468v72h452v-72l-376 -1396h376v-72h-448v72l373 1396h-377z" />
<glyph unicode="{" horiz-adv-x="694" d="M164 616q27 -4 43 -43q18 -37 22 -108q4 -35 6.5 -95.5t2.5 -152.5t1 -155.5t3 -102.5q12 -154 59 -207q14 -14 51 -14h21v121h-11q-33 0 -45 45t-16 112q-2 6 -2 29v47v156q0 213 -18 309q-10 47 -22.5 83t-33.5 58q16 23 27.5 47.5t21 56.5t14.5 71.5t9 95.5q2 8 2 18 v27v71v213q0 66 2 108t8 60q8 18 21.5 48t31.5 30h13v117h-23q-29 0 -45 -10q-29 -25 -45 -81.5t-22 -180.5q-2 -10 -2 -35v-47v-140q0 -86 -2.5 -143t-6.5 -92q-4 -70 -20 -109t-45 -41v-166z" />
<glyph unicode="|" horiz-adv-x="548" d="M164 -213h65v1874h-65v-1874z" />
<glyph unicode="}" horiz-adv-x="694" d="M164 1544v117h22q29 0 45 -10q29 -25 45.5 -81.5t22.5 -180.5q2 -10 2 -35v-47v-140q0 -86 2 -143t6 -92q4 -70 20.5 -109t45.5 -41v-166q-29 -4 -43 -43q-18 -37 -23 -108q-4 -35 -6 -95.5t-2 -152.5t-1 -155.5t-3 -102.5q-12 -154 -59 -207q-14 -14 -52 -14h-20v121h10 q33 0 45 45t17 112q2 6 2 29v47v156q0 213 18 309q10 47 22.5 83t32.5 58q-16 23 -27.5 47.5t-20.5 56.5t-14 71.5t-9 95.5q-2 8 -2 18v27v71v213q0 66 -2 108t-9 60q-8 18 -21 48t-32 30h-12z" />
<glyph unicode="~" horiz-adv-x="774" d="M164 713h67l39 84l39 -84h74l72 155h-68l-39 -84l-39 84h-73z" />
<glyph horiz-adv-x="364" />
<glyph unicode="&#xa1;" horiz-adv-x="571" d="M164 1417h88v123h-88v-123zM174 0h68v1176h-68v-1176z" />
<glyph unicode="&#xa2;" d="M164 164q0 -59 28.5 -109.5t100.5 -54.5h67v-213h66v213h66q61 4 91.5 50t30.5 102v335h-67v-280q0 -68 -17.5 -101.5t-74.5 -33.5h-29v1396h29q57 0 74.5 -32.5t17.5 -100.5v-282h67v340q0 53 -37.5 98t-97.5 49h-53v121h-66v-121h-63q-63 0 -98 -50t-35 -114v-1212z M231 207v1128q0 61 25 97t59 36h45v-1396h-12q-72 0 -94.5 34.5t-22.5 100.5z" />
<glyph unicode="&#xa3;" horiz-adv-x="1320" d="M164 0v72h287q-10 20 -14.5 43.5t-4.5 48.5v596h-268v71h268v545q0 63 31 111.5t102 52.5h183v-72h-164q-35 0 -59.5 -35.5t-24.5 -97.5v-504h307v-71h-307v-553q0 -63 19.5 -99t82.5 -36h399v-72h-837z" />
<glyph unicode="&#xa4;" horiz-adv-x="931" d="M164 0h67l84 410q4 -2 21 -2h100q14 0 23 4l82 -412h71l-114 590v405l114 545h-71l-80 -375q-10 8 -31 13h-92q-10 -2 -15.5 -4.5t-9.5 -4.5l-80 371h-69l108 -522v-453zM324 510v563q0 55 32 55h56q23 0 28.5 -14t5.5 -43v-561q0 -29 -6 -42t-28 -13h-41q-29 0 -38 14 t-9 41z" />
<glyph unicode="&#xa5;" horiz-adv-x="1077" d="M164 219v72h262v196h-262v72h262v201h-41q-27 0 -52.5 7t-47 22.5t-34.5 40t-13 59.5v651h67v-616q0 -92 86 -93h148q78 0 77 87v622h68v-657q0 -33 -14.5 -55.5t-36 -38t-47 -22.5t-47.5 -7h-41v-201h260v-72h-260v-196h260v-72h-260v-219h-72v219h-262z" />
<glyph unicode="&#xa6;" horiz-adv-x="548" d="M164 -213h65v1874h-65v-1874z" />
<glyph unicode="&#xa7;" horiz-adv-x="931" d="M164 0h67l84 410q4 -2 21 -2h100q18 0 30.5 7t20 26.5t9.5 55t2 93.5v405l114 545h-71l-80 -375q-10 8 -31 13h-92q-37 0 -51.5 -34t-14.5 -126v-453zM324 510v563q0 55 32 55h56q23 0 28.5 -14t5.5 -43v-561q0 -29 -6 -42t-28 -13h-41q-29 0 -38 14t-9 41z" />
<glyph unicode="&#xa8;" horiz-adv-x="745" d="M164 1417h88v123h-88v-123zM338 1417h88v123h-88v-123z" />
<glyph unicode="&#xa9;" horiz-adv-x="892" d="M164 1438q0 29 7 52t19 50q14 23 33 42.5t45 33.5q52 26 101 26q53 0 98 -26q55 -29 78 -76q29 -47 28 -102q0 -47 -28 -101q-12 -27 -30.5 -43t-45.5 -32q-47 -18 -72.5 -22.5t-27.5 -4.5q-51 0 -103 27q-23 16 -41 32.5t-35 42.5q-27 45 -26 101zM199 1438 q0 -41 22 -82q25 -37 62 -64l12 -4q63 -18 74 -18q43 0 84 22q37 18 63 64q23 41 23 82q0 45 -22.5 86t-65.5 63q-41 23 -82 23q-43 0 -84 -21.5t-64 -64.5q-23 -41 -22 -86zM262 1438q0 57 28.5 86.5t80.5 29.5q70 0 92 -65l-33 -6q-18 41 -59 41q-72 0 -72 -86 q0 -82 68 -82q55 0 67 51l33 -10q-20 -76 -98 -76q-49 0 -78 30.5t-29 86.5z" />
<glyph unicode="&#xaa;" horiz-adv-x="772" d="M164 872h51l33 256h110l41 -256h54l-119 770h-58zM258 1184l47 321l47 -321h-94z" />
<glyph unicode="&#xab;" horiz-adv-x="907" d="M164 756l155 -72v68l-88 41l88 41v67l-155 -72v-73zM432 756l156 -72v68l-88 41l88 41v67l-156 -72v-73z" />
<glyph unicode="&#xac;" horiz-adv-x="995" d="M164 758h440v-221h72v292h-512v-71z" />
<glyph unicode="&#xad;" horiz-adv-x="763" d="M164 758h280v71h-280v-71z" />
<glyph unicode="&#xae;" horiz-adv-x="892" d="M164 1436q0 29 7 52t19 50q14 23 33 42t45 34q52 26 101 26q53 0 98 -26q55 -29 78 -76q29 -47 28 -102q0 -47 -28 -101q-23 -47 -76 -75q-41 -20 -69.5 -23.5t-30.5 -3.5q-57 0 -103 27q-43 27 -76 75q-27 45 -26 101zM199 1436l6 -22q6 -21 16 -62q18 -35 62 -62l12 -4 q63 -18 74 -18q43 0 84 22q37 25 63 62q10 41 16 62l7 22q0 45 -22.5 86t-65.5 63q-41 23 -82 23q-43 0 -84 -21.5t-64 -64.5q-23 -41 -22 -86zM281 1325v219h73q43 0 58 -8q14 -6 24 -18q12 -16 13 -35q0 -23 -17.5 -40.5t-46.5 -19.5q16 -8 25.5 -20t25.5 -35l29 -43h-45 l-19 33q-25 45 -39 51q-8 8 -26 8h-21v-92h-34zM315 1446h41q33 0 44.5 9t11.5 26q0 23 -21 30q-2 2 -37 2h-39v-67z" />
<glyph unicode="&#xaf;" horiz-adv-x="935" d="M164 1470h452v72h-452v-72z" />
<glyph unicode="&#xb0;" horiz-adv-x="571" d="M164 1417h88v123h-88v-123z" />
<glyph unicode="&#xb1;" horiz-adv-x="995" d="M164 0h512v72h-512v-72zM164 758h221v-221h72v221h219v71h-219v220h-72v-220h-221v-71z" />
<glyph unicode="&#xb2;" horiz-adv-x="708" d="M164 961v270q0 27 22.5 44t36.5 17h92q20 0 23.5 9.5t3.5 25.5v207q0 27 -6 42t-25 15h-65q-23 0 -28 -15t-5 -44v-143h-49v174q0 29 19.5 52t52.5 27h83q39 -4 54.5 -29.5t15.5 -58.5v-249q0 -35 -20.5 -49.5t-40.5 -14.5h-80q-23 0 -29 -8t-6 -25v-227q0 -29 6 -44 t25 -15h145v-50h-153q-39 2 -55.5 28t-16.5 61z" />
<glyph unicode="&#xb3;" horiz-adv-x="708" d="M164 954q0 -29 16.5 -55.5t48.5 -26.5h93q39 2 53 29t14 60v593q0 33 -15.5 58.5t-54.5 29.5h-83q-33 -4 -52.5 -27.5t-19.5 -51.5v-174h47v143q0 29 6 44t29 15h65q12 0 21.5 -15t9.5 -42v-238h-143v-53h143v-262q0 -29 -8 -44t-37 -15h-51q-23 0 -29 15t-6 44v145h-47 v-172z" />
<glyph unicode="&#xb4;" horiz-adv-x="600" d="M164 1384l43 156h74l-72 -156h-45z" />
<glyph unicode="&#xb5;" horiz-adv-x="927" d="M162 1118q0 106 23.5 186t55 132.5t65.5 78t54 25.5h246v-1540h-67v682h-177q-35 0 -69.5 26.5t-64 80t-48 136.5t-18.5 193zM227 1114q6 -55 12.5 -118.5t21.5 -118t45 -89t85 -34.5h148v714h-131q-49 0 -83 -32.5t-53.5 -84t-30 -113.5t-14.5 -124z" />
<glyph unicode="&#xb6;" horiz-adv-x="1798" d="M61 504l121 24l-63 88l8 72l131 -12q0 174 51 174h6l123 -49q43 66 73 99.5t60 45.5l101 -69l200 110l43 -41l-8 -35l8 -14l222 49l80 -8l-13 -76h264l23 -24q0 -68 -43 -70l225 -68v-14q0 -57 -82 -70q146 -61 146 -94l-2 -4l-23 -51h-98l63 -96q4 -4 4 -15v-10 q0 -39 -32 -53l-111 26l-12 -145q-12 -29 -43 -29q-27 0 -48.5 11.5t-54.5 29.5l-12 7l-106 -132l-58 -14l-67 74l-211 -121l-35 12v72l-277 -47l-34 24l12 60l-287 26v46l35 43l-180 36q-33 0 -33 47l70 62l-125 63zM96 481l189 -110l-125 -62l268 -67l-88 -68l307 -14 l-33 -84l277 57l35 -49l-11 -47l222 123l100 -76l111 152l143 -54l10 174l148 -26q2 10 3 12l1 2q0 31 -92 148l141 12l-10 24l-181 101l113 35h14l-14 24l-256 64l90 73h-299l23 86l-291 -49l-8 76l-23 8l-201 -108l-88 73l-118 -143q-14 -8 -29 -8q-37 0 -109 53l-20 -174 l-143 14l8 -51l78 -110zM340 365l18 221l35 6l-12 -211zM414 461v12q0 102 143 127l-4 -55q-4 4 -7 5l-3 1q0 2 -11 2q-27 0 -53 -31q-29 -41 -28 -90q0 -43 41 -43q31 0 36 6l4 -37q-16 -4 -23 -7t-17 -3q-57 0 -76 96q-2 2 -2 17zM571 399q0 143 74 193h21q65 0 79 -70 q-18 -154 -73 -153q-10 -2 -18.5 -3t-14.5 -1q-51 0 -68 34zM610 459q0 -53 31 -53q18 0 51 20q10 16 13.5 30.5t3.5 32.5q0 20 -4 25q-16 29 -37 29q-33 0 -58 -70v-14zM768 365v219l115 -140l8 148l31 -8v-215q-45 0 -119 104v-102zM958 375l21 217l39 12l-12 -215z M1036 385q16 115 82 217q2 6 27 6q35 0 55 -69v-160l-26 6q-18 51 -48 51q-23 0 -47 -51h-43zM1102 483h61l-24 74zM1233 375v217l110 -141l7 153l32 -12v-215q-47 0 -116 106v-104zM1413 356l25 23l30 -14l-30 -35zM1432 436l6 168l47 -12l-21 -160z" />
<glyph unicode="&#xb7;" horiz-adv-x="571" d="M164 735h88v123h-88v-123z" />
<glyph unicode="&#xb8;" horiz-adv-x="589" d="M127 -147h72v147h71v-219h-143v72z" />
<glyph unicode="&#xb9;" horiz-adv-x="610" d="M164 1593h82v-719h45v768h-127v-49z" />
<glyph unicode="&#xba;" horiz-adv-x="708" d="M164 954q0 -31 14.5 -56.5t48.5 -25.5h101q31 0 46 24t15 52v621q0 27 -19.5 48t-47.5 25h-93q-35 -4 -50 -27.5t-15 -53.5v-607zM215 975v563q0 55 33 55h55q23 0 29 -14t6 -43v-561q0 -29 -6 -42t-29 -13h-41q-29 0 -38 14t-9 41z" />
<glyph unicode="&#xbb;" horiz-adv-x="907" d="M164 684v68l88 41l-88 41v67l155 -72v-73zM432 684v68l88 41l-88 41v67l156 -72v-73z" />
<glyph unicode="&#xbc;" horiz-adv-x="1103" d="M164 1489h82v-719h45v768h-127v-49zM227 0h80l369 1540h-80zM561 371h178v-371h45v770h-45v-346h-131v346h-47v-399z" />
<glyph unicode="&#xbd;" horiz-adv-x="1099" d="M164 1489h82v-719h45v768h-127v-49zM227 0h80l369 1540h-80zM555 88q0 -35 16.5 -61.5t55.5 -26.5h153v49h-145q-18 0 -24.5 15.5t-6.5 44.5v227q0 16 6 24.5t29 8.5h80q20 0 40.5 14t20.5 49v250q0 33 -15 58.5t-54 29.5h-84q-33 -4 -52.5 -27.5t-19.5 -52.5v-174h49 v143q0 29 5 44.5t28 15.5h65q18 0 24.5 -15t6.5 -42v-207q0 -16 -3 -25.5t-23 -9.5h-93q-14 0 -36.5 -17.5t-22.5 -44.5v-270z" />
<glyph unicode="&#xbe;" horiz-adv-x="1142" d="M164 850q0 -29 16.5 -55.5t48.5 -26.5h93q39 2 53 28.5t14 59.5v594q0 33 -15.5 58.5t-54.5 29.5h-83q-33 -4 -52.5 -27.5t-19.5 -52.5v-174h47v143q0 29 6 44.5t29 15.5h65q12 0 21.5 -15.5t9.5 -41.5v-238h-143v-53h143v-262q0 -29 -8 -44.5t-37 -15.5h-51 q-23 0 -29 15.5t-6 44.5v145h-47v-172zM266 0h80l369 1540h-80zM600 371h178v-371h45v770h-45v-346h-131v346h-47v-399z" />
<glyph unicode="&#xbf;" d="M164 164q0 -63 30.5 -111.5t102.5 -52.5h182q59 4 97 49t38 98v340h-69v-280q0 -68 -16.5 -101.5t-73.5 -33.5h-140q-51 0 -67.5 35.5t-16.5 97.5v420q0 41 9.5 65.5t66.5 24.5h47q12 0 32 8t36 22.5t28.5 34t12.5 43.5v291h-68v-242q0 -43 -18.5 -64.5t-77.5 -21.5h-18 q-37 0 -77 -26.5t-40 -85.5v-510zM389 1417h88v123h-88v-123z" />
<glyph unicode="&#xc0;" horiz-adv-x="1052" d="M164 0h74l75 524h262l84 -524h74l-246 1540h-88zM324 604l120 791l119 -791h-239zM371 1786l71 -156h45l-43 156h-73z" />
<glyph unicode="&#xc1;" horiz-adv-x="1052" d="M164 0h74l75 524h262l84 -524h74l-246 1540h-88zM324 604l120 791l119 -791h-239zM399 1630h45l72 156h-74z" />
<glyph unicode="&#xc2;" horiz-adv-x="1052" d="M164 0h74l75 524h262l84 -524h74l-246 1540h-88zM324 604l120 791l119 -791h-239zM336 1630h67l41 88l41 -88h68l-72 156h-73z" />
<glyph unicode="&#xc3;" horiz-adv-x="1052" d="M164 0h74l75 524h262l84 -524h74l-246 1540h-88zM297 1630h68l38 84l39 -84h74l72 156h-68l-39 -84l-39 84h-73zM324 604l120 791l119 -791h-239z" />
<glyph unicode="&#xc4;" horiz-adv-x="1052" d="M164 0h74l75 524h262l84 -524h74l-246 1540h-88zM311 1630h88v123h-88v-123zM324 604l120 791l119 -791h-239zM485 1630h88v123h-88v-123z" />
<glyph unicode="&#xc5;" horiz-adv-x="1052" d="M164 0h74l75 524h262l84 -524h74l-246 1540h-88zM324 604l120 791l119 -791h-239zM399 1630h88v123h-88v-123z" />
<glyph unicode="&#xc6;" horiz-adv-x="1433" d="M164 0l235 1540h88l175 -1091v1091h452v-72h-385v-639h342v-71h-342v-686h385v-72h-455l-84 524h-262l-75 -524h-74zM324 604h239l-119 791z" />
<glyph unicode="&#xc7;" d="M164 164v1212q0 63 34.5 113.5t98.5 50.5h182q59 -4 97 -49t38 -98v-340h-67v282q0 68 -17.5 100.5t-74.5 32.5h-140q-35 0 -59.5 -35.5t-24.5 -97.5v-1128q0 -66 22.5 -100.5t94.5 -34.5h107q57 0 74.5 33.5t17.5 101.5v280h67v-335q0 -55 -30.5 -101.5t-91.5 -50.5h-56 v-219h-143v72h72v147h-72q-72 4 -100.5 54t-28.5 110z" />
<glyph unicode="&#xc8;" horiz-adv-x="935" d="M164 0h452v72h-385v686h342v71h-342v639h385v72h-452v-1540zM315 1786l72 -156h45l-43 156h-74z" />
<glyph unicode="&#xc9;" horiz-adv-x="935" d="M164 0h452v72h-385v686h342v71h-342v639h385v72h-452v-1540zM346 1630h45l72 156h-74z" />
<glyph unicode="&#xca;" horiz-adv-x="935" d="M164 0h452v72h-385v686h342v71h-342v639h385v72h-452v-1540zM285 1630h67l41 88l41 -88h68l-72 156h-74z" />
<glyph unicode="&#xcb;" horiz-adv-x="935" d="M164 0h452v72h-385v686h342v71h-342v639h385v72h-452v-1540zM258 1630h88v123h-88v-123zM432 1630h88v123h-88v-123z" />
<glyph unicode="&#xcc;" horiz-adv-x="557" d="M135 1788l72 -156h45l-43 156h-74zM164 0h74v1540h-74v-1540z" />
<glyph unicode="&#xcd;" horiz-adv-x="557" d="M147 1632h46l71 156h-74zM164 0h74v1540h-74v-1540z" />
<glyph unicode="&#xce;" horiz-adv-x="557" d="M92 1630h68l41 88l41 -88h67l-71 156h-74zM164 0h74v1540h-74v-1540z" />
<glyph unicode="&#xcf;" horiz-adv-x="557" d="M72 1630h88v123h-88v-123zM164 0h74v1540h-74v-1540zM246 1630h88v123h-88v-123z" />
<glyph unicode="&#xd0;" horiz-adv-x="1093" d="M164 758h155v-758h175q43 0 83.5 31.5t69.5 83.5q18 33 41 87t41.5 131t31.5 177t13 225v39q0 205 -21.5 364.5t-64.5 260.5q-35 53 -82 97t-98 44h-189v-711h-155v-71zM387 72v686h145v71h-145v639h86q25 0 46.5 -11t41.5 -30q70 -59 98 -208q8 -23 15.5 -66t13.5 -97.5 t10 -113.5t4 -117q0 -113 -8 -209t-12 -149q-4 -43 -17.5 -108.5t-38 -127t-62.5 -107.5t-91 -52h-86z" />
<glyph unicode="&#xd1;" d="M164 0h67v1274l310 -1274h73v1540h-67v-1280l-307 1280h-76v-1540zM248 1630h67l39 84l39 -84h74l72 156h-68l-39 -84l-39 84h-74z" />
<glyph unicode="&#xd2;" d="M164 164q0 -59 28.5 -109.5t100.5 -54.5h199q61 4 91.5 50t30.5 102v1241q0 53 -37.5 98t-97.5 49h-182q-72 0 -102.5 -50t-30.5 -114v-1212zM231 207v1128q0 61 25 97t59 36h140q57 0 74.5 -33.5t17.5 -101.5v-1126q0 -68 -17.5 -101.5t-74.5 -33.5h-111 q-72 0 -92.5 34.5t-20.5 100.5zM315 1786l72 -156h45l-43 156h-74z" />
<glyph unicode="&#xd3;" d="M164 164q0 -59 28.5 -109.5t100.5 -54.5h199q61 4 91.5 50t30.5 102v1241q0 53 -37.5 98t-97.5 49h-182q-72 0 -102.5 -50t-30.5 -114v-1212zM231 207v1128q0 61 25 97t59 36h140q57 0 74.5 -33.5t17.5 -101.5v-1126q0 -68 -17.5 -101.5t-74.5 -33.5h-111 q-72 0 -92.5 34.5t-20.5 100.5zM346 1630h45l72 156h-74z" />
<glyph unicode="&#xd4;" d="M164 164q0 -59 28.5 -109.5t100.5 -54.5h199q61 4 91.5 50t30.5 102v1241q0 53 -37.5 98t-97.5 49h-182q-72 0 -102.5 -50t-30.5 -114v-1212zM231 207v1128q0 61 25 97t59 36h140q57 0 74.5 -33.5t17.5 -101.5v-1126q0 -68 -17.5 -101.5t-74.5 -33.5h-111 q-72 0 -92.5 34.5t-20.5 100.5zM285 1630h67l41 88l41 -88h68l-72 156h-74z" />
<glyph unicode="&#xd5;" d="M164 164q0 -59 28.5 -109.5t100.5 -54.5h199q61 4 91.5 50t30.5 102v1241q0 53 -37.5 98t-97.5 49h-182q-72 0 -102.5 -50t-30.5 -114v-1212zM231 207v1128q0 61 25 97t59 36h140q57 0 74.5 -33.5t17.5 -101.5v-1126q0 -68 -17.5 -101.5t-74.5 -33.5h-111 q-72 0 -92.5 34.5t-20.5 100.5zM248 1630h67l39 84l39 -84h74l72 156h-68l-39 -84l-39 84h-74z" />
<glyph unicode="&#xd6;" d="M164 164q0 -59 28.5 -109.5t100.5 -54.5h199q61 4 91.5 50t30.5 102v1241q0 53 -37.5 98t-97.5 49h-182q-72 0 -102.5 -50t-30.5 -114v-1212zM231 207v1128q0 61 25 97t59 36h140q57 0 74.5 -33.5t17.5 -101.5v-1126q0 -68 -17.5 -101.5t-74.5 -33.5h-111 q-72 0 -92.5 34.5t-20.5 100.5zM258 1630h88v123h-88v-123zM432 1630h88v123h-88v-123z" />
<glyph unicode="&#xd7;" horiz-adv-x="894" d="M164 637l49 -51l158 155l153 -153l51 49l-155 156l155 155l-51 49l-153 -153l-158 155l-49 -51l155 -155z" />
<glyph unicode="&#xd8;" d="M164 164q0 -59 28.5 -109.5t100.5 -54.5h199q61 4 91.5 50t30.5 102v1241q0 53 -37.5 98t-97.5 49h-182q-72 0 -102.5 -50t-30.5 -114v-1212zM231 270v1065q0 61 25 97t59 36h140q20 0 47 -10zM268 88l279 1219v-1100q0 -68 -17.5 -101.5t-74.5 -33.5h-111q-47 0 -76 16z " />
<glyph unicode="&#xd9;" d="M164 152q0 -55 30.5 -101.5t92.5 -50.5h198q72 4 100.5 54t28.5 110v1376h-67v-1333q0 -66 -24.5 -100.5t-96.5 -34.5h-102q-57 0 -75 33.5t-18 101.5v1333h-67v-1388zM315 1786l72 -156h45l-43 156h-74z" />
<glyph unicode="&#xda;" d="M164 152q0 -55 30.5 -101.5t92.5 -50.5h198q72 4 100.5 54t28.5 110v1376h-67v-1333q0 -66 -24.5 -100.5t-96.5 -34.5h-102q-57 0 -75 33.5t-18 101.5v1333h-67v-1388zM346 1630h45l72 156h-74z" />
<glyph unicode="&#xdb;" d="M164 152q0 -55 30.5 -101.5t92.5 -50.5h198q72 4 100.5 54t28.5 110v1376h-67v-1333q0 -66 -24.5 -100.5t-96.5 -34.5h-102q-57 0 -75 33.5t-18 101.5v1333h-67v-1388zM285 1630h67l41 88l41 -88h68l-72 156h-74z" />
<glyph unicode="&#xdc;" d="M164 164q0 -59 28.5 -109.5t100.5 -54.5h199q61 4 91.5 50t30.5 102v1388h-67v-1333q0 -68 -17.5 -101.5t-74.5 -33.5h-103q-72 0 -96.5 34.5t-24.5 100.5v1333h-67v-1376zM258 1630h88v123h-88v-123zM432 1630h88v123h-88v-123z" />
<glyph unicode="&#xdd;" horiz-adv-x="929" d="M164 889q0 -35 13 -59.5t34.5 -40t47.5 -22.5t52 -7h41v-760h72v760h41q23 0 48.5 7t47 22.5t35.5 38t14 55.5v657h-67v-622q0 -86 -78 -87h-148q-86 0 -86 93v616h-67v-651zM346 1630h45l72 156h-74z" />
<glyph unicode="&#xde;" horiz-adv-x="927" d="M164 0v1540h67v-332h179q20 0 53 -25.5t65.5 -77.5t56 -132t23.5 -187q0 -111 -18.5 -193.5t-48 -136t-65.5 -80t-68 -26.5h-177v-350h-67zM231 422h148q55 0 85 35t45 89t21.5 117.5t12.5 118.5q-4 61 -14.5 124t-30 114t-53 84t-83.5 33h-131v-715z" />
<glyph unicode="&#xdf;" d="M164 -213v1606q0 53 38 98t97 49h182q72 -4 102.5 -52t30.5 -112v-1212q0 -59 -28.5 -109.5t-100.5 -54.5h-123v72h68q72 0 94.5 34.5t22.5 100.5v553h-185v71h185v504q0 61 -24.5 97t-59.5 36h-139q-57 0 -76 -33.5t-19 -101.5v-1546h-65z" />
<glyph unicode="&#xe0;" horiz-adv-x="1052" d="M164 0h74l206 1391l215 -1391h74l-246 1540h-88zM371 1786l71 -156h45l-43 156h-73z" />
<glyph unicode="&#xe1;" horiz-adv-x="1052" d="M164 0h74l206 1391l215 -1391h74l-246 1540h-88zM399 1630h45l72 156h-74z" />
<glyph unicode="&#xe2;" horiz-adv-x="1052" d="M164 0h74l206 1391l215 -1391h74l-246 1540h-88zM336 1630h67l41 88l41 -88h68l-72 156h-73z" />
<glyph unicode="&#xe3;" horiz-adv-x="1052" d="M164 0h74l206 1391l215 -1391h74l-246 1540h-88zM297 1630h68l38 84l39 -84h74l72 156h-68l-39 -84l-39 84h-73z" />
<glyph unicode="&#xe4;" horiz-adv-x="1052" d="M164 0h74l206 1391l215 -1391h74l-246 1540h-88zM311 1630h88v123h-88v-123zM485 1630h88v123h-88v-123z" />
<glyph unicode="&#xe5;" horiz-adv-x="1052" d="M164 0h74l206 1391l215 -1391h74l-246 1540h-88zM399 1630h88v123h-88v-123z" />
<glyph unicode="&#xe6;" horiz-adv-x="1429" d="M164 0l235 1540h88l170 -1065v1065h453v-72h-385v-639h342v-71h-342v-686h385v-72h-453l-213 1391l-206 -1391h-74z" />
<glyph unicode="&#xe7;" d="M164 164v1212q0 63 34.5 113.5t98.5 50.5h182q59 -4 97 -49t38 -98v-340h-67v282q0 68 -17.5 100.5t-74.5 32.5h-140q-35 0 -59.5 -35.5t-24.5 -97.5v-1128q0 -66 22.5 -100.5t94.5 -34.5h107q57 0 74.5 33.5t17.5 101.5v280h67v-335q0 -55 -30.5 -101.5t-91.5 -50.5h-56 v-219h-143v72h72v147h-72q-72 4 -100.5 54t-28.5 110z" />
<glyph unicode="&#xe8;" horiz-adv-x="935" d="M164 0h452v72h-385v686h342v71h-342v639h385v72h-452v-1540zM315 1786l72 -156h45l-43 156h-74z" />
<glyph unicode="&#xe9;" horiz-adv-x="935" d="M164 0h452v72h-385v686h342v71h-342v639h385v72h-452v-1540zM346 1630h45l72 156h-74z" />
<glyph unicode="&#xea;" horiz-adv-x="935" d="M164 0h452v72h-385v686h342v71h-342v639h385v72h-452v-1540zM285 1630h67l41 88l41 -88h68l-72 156h-74z" />
<glyph unicode="&#xeb;" horiz-adv-x="935" d="M164 0h452v72h-385v686h342v71h-342v639h385v72h-452v-1540zM258 1630h88v123h-88v-123zM432 1630h88v123h-88v-123z" />
<glyph unicode="&#xec;" horiz-adv-x="557" d="M135 1788l72 -156h45l-43 156h-74zM164 0h74v1540h-74v-1540z" />
<glyph unicode="&#xed;" horiz-adv-x="557" d="M147 1632h46l71 156h-74zM164 0h74v1540h-74v-1540z" />
<glyph unicode="&#xee;" horiz-adv-x="557" d="M92 1630h68l41 88l41 -88h67l-71 156h-74zM164 0h74v1540h-74v-1540z" />
<glyph unicode="&#xef;" horiz-adv-x="557" d="M72 1630h88v123h-88v-123zM164 0h74v1540h-74v-1540zM246 1630h88v123h-88v-123z" />
<glyph unicode="&#xf0;" d="M164 147v500q0 39 32.5 78t73.5 51h277v559q0 61 -24.5 97t-59.5 36h-141q-57 0 -74 -33.5t-17 -101.5v-280h-67v340q0 53 38 98t97 49h182q72 -4 102.5 -52t30.5 -112v-1212q0 -59 -28.5 -109.5t-100.5 -54.5h-194q-61 4 -94 48t-33 99zM231 207q0 -68 19.5 -101.5 t77.5 -33.5h98q72 0 96.5 34.5t24.5 100.5v498h-225q-76 -10 -91 -87v-411z" />
<glyph unicode="&#xf1;" d="M164 0h67v1274l310 -1274h73v1540h-67v-1280l-307 1280h-76v-1540zM248 1630h67l39 84l39 -84h74l72 156h-68l-39 -84l-39 84h-74z" />
<glyph unicode="&#xf2;" d="M164 164q0 -59 28.5 -109.5t100.5 -54.5h199q61 4 91.5 50t30.5 102v1241q0 53 -37.5 98t-97.5 49h-182q-72 0 -102.5 -50t-30.5 -114v-1212zM231 207v1128q0 61 25 97t59 36h140q57 0 74.5 -33.5t17.5 -101.5v-1126q0 -68 -17.5 -101.5t-74.5 -33.5h-111 q-72 0 -92.5 34.5t-20.5 100.5zM315 1786l72 -156h45l-43 156h-74z" />
<glyph unicode="&#xf3;" d="M164 164q0 -59 28.5 -109.5t100.5 -54.5h199q61 4 91.5 50t30.5 102v1241q0 53 -37.5 98t-97.5 49h-182q-72 0 -102.5 -50t-30.5 -114v-1212zM231 207v1128q0 61 25 97t59 36h140q57 0 74.5 -33.5t17.5 -101.5v-1126q0 -68 -17.5 -101.5t-74.5 -33.5h-111 q-72 0 -92.5 34.5t-20.5 100.5zM346 1630h45l72 156h-74z" />
<glyph unicode="&#xf4;" d="M164 164q0 -59 28.5 -109.5t100.5 -54.5h199q61 4 91.5 50t30.5 102v1241q0 53 -37.5 98t-97.5 49h-182q-72 0 -102.5 -50t-30.5 -114v-1212zM231 207v1128q0 61 25 97t59 36h140q57 0 74.5 -33.5t17.5 -101.5v-1126q0 -68 -17.5 -101.5t-74.5 -33.5h-111 q-72 0 -92.5 34.5t-20.5 100.5zM285 1630h67l41 88l41 -88h68l-72 156h-74z" />
<glyph unicode="&#xf5;" d="M164 164q0 -59 28.5 -109.5t100.5 -54.5h199q61 4 91.5 50t30.5 102v1241q0 53 -37.5 98t-97.5 49h-182q-72 0 -102.5 -50t-30.5 -114v-1212zM231 207v1128q0 61 25 97t59 36h140q57 0 74.5 -33.5t17.5 -101.5v-1126q0 -68 -17.5 -101.5t-74.5 -33.5h-111 q-72 0 -92.5 34.5t-20.5 100.5zM248 1630h67l39 84l39 -84h74l72 156h-68l-39 -84l-39 84h-74z" />
<glyph unicode="&#xf6;" d="M164 164q0 -59 28.5 -109.5t100.5 -54.5h199q61 4 91.5 50t30.5 102v1241q0 53 -37.5 98t-97.5 49h-182q-72 0 -102.5 -50t-30.5 -114v-1212zM231 207v1128q0 61 25 97t59 36h140q57 0 74.5 -33.5t17.5 -101.5v-1126q0 -68 -17.5 -101.5t-74.5 -33.5h-111 q-72 0 -92.5 34.5t-20.5 100.5zM258 1630h88v123h-88v-123zM432 1630h88v123h-88v-123z" />
<glyph unicode="&#xf7;" horiz-adv-x="1077" d="M164 758h594v71h-594v-71zM422 551h88v123h-88v-123zM424 903h88v123h-88v-123z" />
<glyph unicode="&#xf8;" d="M164 164q0 -59 28.5 -109.5t100.5 -54.5h199q61 4 91.5 50t30.5 102v1241q0 53 -37.5 98t-97.5 49h-182q-72 0 -102.5 -50t-30.5 -114v-1212zM231 270v1065q0 61 25 97t59 36h140q20 0 47 -10zM268 88l279 1219v-1100q0 -68 -17.5 -101.5t-74.5 -33.5h-111q-47 0 -76 16z " />
<glyph unicode="&#xf9;" d="M164 152q0 -55 30.5 -101.5t92.5 -50.5h198q72 4 100.5 54t28.5 110v1376h-67v-1333q0 -66 -24.5 -100.5t-96.5 -34.5h-102q-57 0 -75 33.5t-18 101.5v1333h-67v-1388zM315 1786l72 -156h45l-43 156h-74z" />
<glyph unicode="&#xfa;" d="M164 152q0 -55 30.5 -101.5t92.5 -50.5h198q72 4 100.5 54t28.5 110v1376h-67v-1333q0 -66 -24.5 -100.5t-96.5 -34.5h-102q-57 0 -75 33.5t-18 101.5v1333h-67v-1388zM346 1630h45l72 156h-74z" />
<glyph unicode="&#xfb;" d="M164 152q0 -55 30.5 -101.5t92.5 -50.5h198q72 4 100.5 54t28.5 110v1376h-67v-1333q0 -66 -24.5 -100.5t-96.5 -34.5h-102q-57 0 -75 33.5t-18 101.5v1333h-67v-1388zM285 1630h67l41 88l41 -88h68l-72 156h-74z" />
<glyph unicode="&#xfc;" d="M164 164q0 -59 28.5 -109.5t100.5 -54.5h199q61 4 91.5 50t30.5 102v1388h-67v-1333q0 -68 -17.5 -101.5t-74.5 -33.5h-103q-72 0 -96.5 34.5t-24.5 100.5v1333h-67v-1376zM258 1630h88v123h-88v-123zM432 1630h88v123h-88v-123z" />
<glyph unicode="&#xfd;" horiz-adv-x="929" d="M164 889q0 -35 13 -59.5t34.5 -40t47.5 -22.5t52 -7h41v-760h72v760h41q23 0 48.5 7t47 22.5t35.5 38t14 55.5v657h-67v-622q0 -86 -78 -87h-148q-86 0 -86 93v616h-67v-651zM346 1630h45l72 156h-74z" />
<glyph unicode="&#xfe;" horiz-adv-x="927" d="M164 0v1540h67v-332h179q20 0 53 -25.5t65.5 -77.5t56 -132t23.5 -187q0 -111 -18.5 -193.5t-48 -136t-65.5 -80t-68 -26.5h-177v-350h-67zM231 422h148q55 0 85 35t45 89t21.5 117.5t12.5 118.5q-4 61 -14.5 124t-30 114t-53 84t-83.5 33h-131v-715z" />
<glyph unicode="&#xff;" horiz-adv-x="929" d="M164 889q0 -35 13 -59.5t34.5 -40t47.5 -22.5t52 -7h41v-760h72v760h41q23 0 48.5 7t47 22.5t35.5 38t14 55.5v657h-67v-622q0 -86 -78 -87h-148q-86 0 -86 93v616h-67v-651zM258 1630h88v123h-88v-123zM432 1630h88v123h-88v-123z" />
<glyph unicode="&#x152;" horiz-adv-x="1370" d="M164 164q0 -59 28.5 -109.5t100.5 -54.5h199q39 4 64.5 23.5t41.5 50.5v-74h453v72h-385v686h342v71h-342v639h385v72h-453v-80q-16 33 -47 54.5t-72 25.5h-182q-72 -4 -102.5 -52t-30.5 -112v-1212zM231 207v1128q0 61 25 97t59 36h140q57 0 73.5 -33.5t16.5 -101.5 v-280h53v-566h-53v-280q0 -68 -16.5 -101.5t-73.5 -33.5h-103q-72 0 -96.5 34.5t-24.5 100.5z" />
<glyph unicode="&#x153;" horiz-adv-x="1370" d="M164 164q0 -59 28.5 -109.5t100.5 -54.5h199q39 4 64.5 23.5t41.5 50.5v-74h453v72h-385v686h342v71h-342v639h385v72h-453v-80q-16 33 -47 54.5t-72 25.5h-182q-72 -4 -102.5 -52t-30.5 -112v-1212zM231 207v1128q0 61 25 97t59 36h140q57 0 73.5 -33.5t16.5 -101.5 v-280h53v-566h-53v-280q0 -68 -16.5 -101.5t-73.5 -33.5h-103q-72 0 -96.5 34.5t-24.5 100.5z" />
<glyph unicode="&#x178;" horiz-adv-x="929" d="M164 889q0 -35 13 -59.5t34.5 -40t47.5 -22.5t52 -7h41v-760h72v760h41q23 0 48.5 7t47 22.5t35.5 38t14 55.5v657h-67v-622q0 -86 -78 -87h-148q-86 0 -86 93v616h-67v-651zM258 1630h88v123h-88v-123zM432 1630h88v123h-88v-123z" />
<glyph unicode="&#x2c6;" horiz-adv-x="700" d="M164 1384h67l41 89l41 -89h68l-72 156h-73z" />
<glyph unicode="&#x2dc;" horiz-adv-x="774" d="M164 1384h67l39 84l39 -84h74l72 156h-68l-39 -84l-39 84h-73z" />
<glyph unicode="&#x2000;" horiz-adv-x="894" />
<glyph unicode="&#x2001;" horiz-adv-x="1788" />
<glyph unicode="&#x2002;" horiz-adv-x="894" />
<glyph unicode="&#x2003;" horiz-adv-x="1788" />
<glyph unicode="&#x2004;" horiz-adv-x="596" />
<glyph unicode="&#x2005;" horiz-adv-x="447" />
<glyph unicode="&#x2006;" horiz-adv-x="298" />
<glyph unicode="&#x2007;" horiz-adv-x="298" />
<glyph unicode="&#x2008;" horiz-adv-x="223" />
<glyph unicode="&#x2009;" horiz-adv-x="357" />
<glyph unicode="&#x200a;" horiz-adv-x="99" />
<glyph unicode="&#x2010;" horiz-adv-x="919" d="M164 758h436v71h-436v-71z" />
<glyph unicode="&#x2011;" horiz-adv-x="919" d="M164 758h436v71h-436v-71z" />
<glyph unicode="&#x2012;" horiz-adv-x="919" d="M164 758h436v71h-436v-71z" />
<glyph unicode="&#x2013;" horiz-adv-x="919" d="M164 758h436v71h-436v-71z" />
<glyph unicode="&#x2014;" horiz-adv-x="1077" d="M164 758h594v71h-594v-71z" />
<glyph unicode="&#x2018;" horiz-adv-x="550" d="M164 1098v225l16 215h35l16 -215v-225h-67z" />
<glyph unicode="&#x2019;" horiz-adv-x="550" d="M164 1315l16 -215h35l16 215v225h-67v-225z" />
<glyph unicode="&#x201a;" horiz-adv-x="571" d="M164 0h53q-2 -72 -11 -112t-28 -60l17 -66q31 33 44 89.5t13 148.5v123h-88v-123z" />
<glyph unicode="&#x201c;" horiz-adv-x="761" d="M164 1098v225l16 215h35l16 -215v-225h-67zM375 1098v225l16 215h35l16 -215v-225h-67z" />
<glyph unicode="&#x201d;" horiz-adv-x="761" d="M164 1315l16 -215h35l16 215v225h-67v-225zM375 1315l16 -215h35l16 215v225h-67v-225z" />
<glyph unicode="&#x201e;" horiz-adv-x="823" d="M164 0h53q-2 -72 -11 -112t-28 -60l17 -66q31 33 44 89.5t13 148.5v123h-88v-123zM416 0h53q-2 -72 -11 -112t-28 -60l16 -66q31 33 44.5 89.5t13.5 148.5v123h-88v-123z" />
<glyph unicode="&#x2022;" horiz-adv-x="798" d="M164 207v1128q0 61 24.5 97t59.5 36h139q57 0 74.5 -33.5t17.5 -101.5v-1126q0 -68 -17.5 -101.5t-74.5 -33.5h-111q-72 0 -92 34.5t-20 100.5z" />
<glyph unicode="&#x2026;" horiz-adv-x="1075" d="M164 0h88v123h-88v-123zM416 0h88v123h-88v-123zM668 0h88v123h-88v-123z" />
<glyph unicode="&#x202f;" horiz-adv-x="357" />
<glyph unicode="&#x2039;" horiz-adv-x="638" d="M164 756l155 -72v68l-88 41l88 41v67l-155 -72v-73z" />
<glyph unicode="&#x203a;" horiz-adv-x="638" d="M164 684v68l88 41l-88 41v67l155 -72v-73z" />
<glyph unicode="&#x205f;" horiz-adv-x="447" />
<glyph unicode="&#x20ac;" horiz-adv-x="1132" d="M164 625v71h198v197h-198v72h198v411q0 63 35 113.5t99 50.5h182q59 -4 97 -49t38 -98v-340h-68v282q0 68 -17 100.5t-75 32.5h-139q-35 0 -59.5 -35.5t-24.5 -97.5v-370h309v-72h-309v-197h309v-71h-309v-418q0 -66 22.5 -100.5t94.5 -34.5h106q57 0 74.5 33.5 t17.5 101.5v280h68v-335q0 -55 -30.5 -101.5t-92.5 -50.5h-198q-72 4 -101 54t-29 110v461h-198z" />
<glyph unicode="&#x2122;" horiz-adv-x="1114" d="M164 1614h78v-588h26v588h78v28h-182v-28zM410 1026h28v537l154 -537h22l154 537v-537h27v616h-29l-162 -559l-166 559h-28v-616z" />
<glyph unicode="&#x25fc;" horiz-adv-x="1536" d="M0 0v1536h1536v-1536h-1536z" />
</font>
</defs>
</svg>
